<svg xmlns="http://www.w3.org/2000/svg" viewBox="0 0 64 64" role="img" aria-label="Shri Shri Amit Agarwal emblem">
  <defs>
    <linearGradient id="lg-gold" x1="0" y1="0" x2="1" y2="1">
      <stop offset="0" stop-color="#f7e08a"/>
      <stop offset="0.5" stop-color="#d4af37"/>
      <stop offset="1" stop-color="#b8860b"/>
    </linearGradient>
  </defs>
  <!-- Outer ring -->
  <circle cx="32" cy="32" r="29" fill="none" stroke="url(#lg-gold)" stroke-width="2"/>
  <circle cx="32" cy="32" r="24" fill="none" stroke="url(#lg-gold)" stroke-width="0.75" opacity="0.6"/>
  <!-- Radiating rays -->
  <g stroke="url(#lg-gold)" stroke-width="1.4" stroke-linecap="round">
    <line x1="32" y1="4"  x2="32" y2="11"/>
    <line x1="32" y1="53" x2="32" y2="60"/>
    <line x1="4"  y1="32" x2="11" y2="32"/>
    <line x1="53" y1="32" x2="60" y2="32"/>
    <line x1="12" y1="12" x2="17" y2="17"/>
    <line x1="47" y1="47" x2="52" y2="52"/>
    <line x1="52" y1="12" x2="47" y2="17"/>
    <line x1="17" y1="47" x2="12" y2="52"/>
  </g>
  <!-- Central star / Om-inspired lotus mark -->
  <path d="M32 16 L35.6 27.2 L47.4 27.2 L37.9 34.1 L41.5 45.3 L32 38.4 L22.5 45.3 L26.1 34.1 L16.6 27.2 L28.4 27.2 Z"
        fill="url(#lg-gold)"/>
  <circle cx="32" cy="32" r="3.4" fill="#0a0e27"/>
</svg>
